<?xml version="1.0" encoding="UTF-8"?>
<svg width="200px" height="200px" viewBox="0 0 200 200" version="1.1" xmlns="http://www.w3.org/2000/svg" xmlns:xlink="http://www.w3.org/1999/xlink">
    <title>colorBar</title>
    <defs>
        <filter x="-8.8%" y="-8.8%" width="117.5%" height="117.5%" filterUnits="objectBoundingBox" id="filter-1">
            <feOffset dx="0" dy="5" in="SourceAlpha" result="shadowOffsetOuter1"></feOffset>
            <feGaussianBlur stdDeviation="2" in="shadowOffsetOuter1" result="shadowBlurOuter1"></feGaussianBlur>
            <feColorMatrix values="0 0 0 0 0.0125209125   0 0 0 0 0.115435385   0 0 0 0 0.178753397  0 0 0 1 0" type="matrix" in="shadowBlurOuter1" result="shadowMatrixOuter1"></feColorMatrix>
            <feMerge>
                <feMergeNode in="shadowMatrixOuter1"></feMergeNode>
                <feMergeNode in="SourceGraphic"></feMergeNode>
            </feMerge>
        </filter>
    </defs>
    <g id="colorBar" stroke="none" stroke-width="1" fill="none" fill-rule="evenodd">
        <g filter="url(#filter-1)" id="Combined-Shape">
            <path d="M180.801965,86.8131868 L181.709692,92.3303846 L165.357433,95.4201868 L181.898782,93.8696726 L182.354379,99.4506636 L169.225433,100.681187 L182.417569,100.681624 L182.417569,106.283934 L109.481433,106.283187 L106.176095,106.593407 L106.150433,106.283187 L105.948297,106.283934 L105.947433,103.799187 L105.494433,101.044312 L105.947433,100.958187 L105.948297,100.681624 L107.415433,100.681187 L180.801965,86.8131868 Z" fill="#3FA0D9"></path>
            <path d="M108.594595,101.098901 L184.615373,108.152444 L184.160728,113.66362 L167.652237,112.130901 L183.972027,115.183698 L183.066191,120.631917 L166.754237,117.581901 L182.753294,122.128736 L181.403156,127.472527 L107.692237,106.52621 L108.366237,103.859901 L108.366237,103.858901 L108.594595,101.098901 Z" fill="#D9BB3F"></path>
            <path d="M107.715037,104.395604 L180.219765,131.159619 L178.415791,136.186325 L162.665433,130.371604 L177.856417,137.555936 L175.627331,142.404056 L160.439433,135.221604 L174.952386,143.719011 L172.315152,148.351648 L105.494433,109.225276 L106.810433,106.913604 L107.715037,104.395604 Z" fill="#86819A"></path>
            <path d="M111.036857,107.692308 L173.626353,152.519882 L170.63046,156.896277 L157.038237,147.161308 L169.749277,158.070912 L166.391881,162.163575 L153.683237,151.256308 L165.413963,163.255184 L161.720617,167.032967 L107.692237,111.769397 L109.533237,109.886308 L109.538237,109.879308 L111.036857,107.692308 Z" fill="#B2BABA"></path>
            <path d="M109.794036,104.395604 L159.340628,163.921124 L155.304207,167.335514 L144.543433,154.407604 L154.145713,168.231656 L149.829458,171.278406 L140.226433,157.452604 L148.597897,172.069351 L144.034658,174.725275 L105.494433,107.431039 L107.769433,106.106604 L107.777433,106.101604 L109.794036,104.395604 Z" fill="#D4D4D4"></path>
            <path d="M106.012251,108.791209 L138.461491,180.273923 L133.704525,182.552542 L126.656826,167.028209 L132.360666,183.124346 L127.428471,184.968406 L121.725826,168.876209 L126.041211,185.41772 L120.971325,186.813187 L101.098826,110.628252 L103.633826,109.930209 L106.012251,108.791209 Z" fill="#3D3D3D"></path>
            <path d="M104.149131,105.494505 L117.582355,182.953615 L112.37447,183.88728 L109.457022,167.065505 L110.92148,184.081773 L105.653379,184.550389 L104.189022,167.535505 L104.189246,184.615385 L98.9010217,184.615385 L98.9010217,105.961503 L101.548022,105.960505 L104.149131,105.494505 Z" fill="#4B4B4B"></path>
            <path d="M99.1941608,106.593407 L101.743787,107.284407 L101.766787,107.288407 L104.395531,107.521591 L97.6359463,185.714286 L92.3543361,185.246641 L93.8217868,168.262407 L90.8976201,185.052552 L85.6763811,184.120821 L88.5997868,167.337407 L84.2418664,183.798965 L79.1207868,182.410254 L99.1941608,106.593407 Z" fill="#7158E2"></path>
            <path d="M96.3898922,123.076923 L98.64465,124.431923 L101.098826,125.362837 L75.0038911,200 L70.1028491,198.142969 L75.77165,181.928923 L68.7674774,197.567143 L64.0405566,195.272498 L71.04265,179.638923 L62.7584748,194.577702 L58.24165,191.862905 L96.3898922,123.076923 Z" fill="#7D5FFF"></path>
            <path d="M97.097235,118.681319 L98.9510229,120.589319 L98.9540229,120.591319 L101.098826,122.137423 L57.1013582,186.813187 L52.806004,183.717433 L62.3580229,169.674319 L51.6531208,182.806877 L47.6362447,179.337571 L58.3470229,166.198319 L46.5648499,178.327056 L42.8570229,174.510601 L97.097235,118.681319 Z" fill="#17C0EB"></path>
            <path d="M90.4187674,120.879121 L91.72469,123.206121 L93.406512,125.266698 L34.81107,175.824176 L31.4500163,171.705383 L44.17169,160.728121 L30.5678727,170.523249 L27.5687154,166.118912 L41.17269,156.323121 L26.7901256,164.862218 L24.17569,160.205858 L90.4187674,120.879121 Z" fill="#18DCFF"></path>
            <path d="M90.5481873,114.285714 L91.2152783,116.892714 L92.3076101,119.343649 L23.8452399,152.747253 L21.6628992,147.85038 L36.5272783,140.596714 L21.1152554,146.466996 L19.3491116,141.389741 L34.7712783,135.515714 L18.9187832,139.961679 L17.5822783,134.742684 L90.5481873,114.285714 Z" fill="#67E6DC"></path>
            <path d="M87.4583047,101.098901 L87.4578667,103.897901 L87.9120023,106.655691 L12.6044738,120.879121 L11.6967447,115.364895 L28.0458667,112.275901 L11.5076551,113.826436 L11.0520569,108.248451 L27.5918667,106.697901 L10.9888667,106.698193 L10.9888667,101.098901 L87.4583047,101.098901 Z" fill="#7EFFF5"></path>
            <path d="M13.1022189,80.2197802 L86.8131004,101.165892 L86.1379648,103.83678 L85.9106977,106.593407 L9.88996476,99.5399304 L10.3446197,94.0286881 L26.8519648,95.5597802 L10.5339526,92.5087515 L11.4398026,87.0605052 L27.7599648,90.1117802 L11.7520686,85.5635662 L13.1022189,80.2197802 Z" fill="#3AE374"></path>
            <path d="M7.90446036,52.7472527 L74.7251791,91.8736251 L73.407,94.1872527 L72.5045753,96.7032967 L-4.4408921e-14,69.9393369 L1.80397409,64.912631 L17.554,70.7262527 L2.36319558,63.5429649 L4.59228174,58.6948447 L19.776,65.8752527 L5.26722677,57.37989 L7.90446036,52.7472527 Z" fill="#32FF7E"></path>
            <path d="M42.6746776,45.0549451 L96.7032178,100.318515 L94.8561016,102.206945 L93.3585882,104.395604 L30.7691016,59.5681675 L33.7650038,55.1917724 L47.3521016,64.9229451 L34.6459935,54.0170002 L38.0033992,49.9243372 L50.7151016,60.8349451 L38.9813204,48.8327282 L42.6746776,45.0549451 Z" fill="#C56CF0"></path>
            <path d="M59.2618884,35.1648352 L97.8021198,102.459339 L95.5199248,103.786835 L93.5022912,105.494505 L43.9559248,45.9690225 L47.992345,42.5546214 L58.7489248,55.4778352 L49.1508375,41.6584762 L53.4670908,38.6117155 L63.0649248,52.4298352 L54.6986514,37.8207678 L59.2618884,35.1648352 Z" fill="#CD84F1"></path>
            <path d="M76.830718,24.1758242 L96.7032178,100.360759 L94.168552,101.057824 L91.7897921,102.197802 L59.340552,30.7150879 L64.0975182,28.4364691 L71.143552,43.9598242 L65.4413778,27.864665 L70.3735721,26.0206048 L76.074552,42.1118242 L71.7608327,25.5712914 L76.830718,24.1758242 Z" fill="#FFB8B8"></path>
            <path d="M99.9999237,8.79120879 L99.9999237,87.445257 L97.3526949,87.4452088 L94.7518391,87.9120879 L81.3186949,10.4541878 L86.5266092,9.52052648 L89.4426949,26.3422088 L87.979396,9.32481814 L93.2475274,8.85620424 L94.7106949,25.8672088 L94.7116689,8.79120879 L99.9999237,8.79120879 Z" fill="#FFCCCC"></path>
            <path d="M104.561785,4.39569701 L109.843397,4.86333602 L108.37512,21.838697 L111.300037,5.05829809 L116.521279,5.99001712 L113.59712,22.772697 L117.955737,6.31185391 L123.076864,7.70056024 L103.003485,83.5164835 L100.44312,82.821697 L97.8021198,82.5883119 L104.561785,4.39569701 Z" fill="#FF3838"></path>
            <path d="M140.380467,-2.03836947e-13 L145.281488,1.85703065 L139.613649,18.067 L146.616853,2.43285663 L151.343753,4.72750238 L144.342649,20.357 L152.62602,5.42195497 L157.142824,8.13675217 L118.994561,76.9230769 L116.736649,75.566 L114.285649,74.6371625 L140.380467,-2.03836947e-13 Z" fill="#FF4D4D"></path>
            <path d="M164.876528,13.1868132 L169.171882,16.2825671 L159.61506,30.3288132 L170.324765,17.1931227 L174.341641,20.6624289 L163.63406,33.7958132 L175.413036,21.6729437 L179.120863,25.4893985 L124.880651,81.3186813 L123.02506,79.4088132 L120.87906,77.8625769 L164.876528,13.1868132 Z" fill="#FF9F1A"></path>
            <path d="M189.364957,28.5714286 L192.72603,32.6902215 L180.000178,43.6694286 L193.608179,33.8723559 L196.607354,38.2766925 L183.002178,48.0724286 L197.385549,39.5336227 L200,44.1899835 L133.75694,83.5164835 L132.449178,81.1884286 L132.444178,81.1814286 L130.769178,79.1289066 L189.364957,28.5714286 Z" fill="#FFAF40"></path>
            <path d="M193.736506,63.7362637 L195.91883,68.633137 L181.048668,75.8872637 L196.46647,70.0165208 L198.232599,75.0937757 L182.816668,80.9642637 L198.663506,76.5216786 L200,81.7406743 L127.034077,102.197802 L126.363668,99.5822637 L125.274668,97.1398678 L193.736506,63.7362637 Z" fill="#FFF200"></path>
        </g>
    </g>
</svg>