<?xml version="1.0" encoding="UTF-8"?>
<svg width="119px" height="44px" viewBox="0 0 119 44" version="1.1" xmlns="http://www.w3.org/2000/svg" xmlns:xlink="http://www.w3.org/1999/xlink">
    <title>green</title>
    <g id="Symbols" stroke="none" stroke-width="1" fill="none" fill-rule="evenodd">
        <g id="CostRop-gold" transform="translate(1.000000, 0.000000)" fill="#FFFFFF">
            <path d="M44.7406667,0.132866667 C45.4270667,0.132866667 45.4270667,0.132866667 46.1134667,0.204366667 C46.7998667,0.275866667 46.7998667,0.275866667 47.3432667,0.333066667 C47.9724667,0.418866667 47.9724667,0.418866667 48.5730667,0.504666667 L48.5730667,0.504666667 L48.5730667,5.85286667 L48.4141778,5.8338 C48.2489333,5.81473333 48.2489333,5.81473333 48.0582667,5.79566667 C47.8294667,5.76706667 47.8294667,5.76706667 47.5434667,5.73846667 C47.2574667,5.70986667 47.2574667,5.70986667 46.9428667,5.70986667 C46.7712667,5.70986667 46.7712667,5.70986667 46.5138667,5.72416667 C46.2564667,5.73846667 46.2564667,5.73846667 46.0276667,5.79566667 C45.7988667,5.85286667 45.7988667,5.85286667 45.6272667,5.99586667 C45.4556667,6.13886667 45.4556667,6.13886667 45.4556667,6.39626667 C45.4556667,6.62506667 45.4556667,6.62506667 45.8417667,6.96826667 C46.2278667,7.31146667 46.2278667,7.31146667 46.7855667,7.76906667 C47.3432667,8.22666667 47.3432667,8.22666667 48.0153667,8.82726667 C48.6874667,9.42786667 48.6874667,9.42786667 49.2451667,10.2000667 C49.8028667,10.9722667 49.8028667,10.9722667 50.1889667,11.9446667 C50.5750667,12.9170667 50.5750667,12.9170667 50.5750667,14.1182667 C50.5750667,15.3766667 50.5750667,15.3766667 50.1746667,16.4777667 C49.7742667,17.5788667 49.7742667,17.5788667 48.9305667,18.3939667 C48.5449442,18.7665171 48.5449442,18.7665171 48.0607396,19.0673715 L54.3786667,19.0658667 L54.3788667,5.59546667 L50.8610667,5.59546667 L50.8610667,0.590466667 L64.1886667,0.590466667 L64.1886667,5.59546667 L60.6708667,5.59546667 L60.6706667,19.0658667 L65.1896667,19.0658667 L65.1896667,0.590466667 L71.7676667,0.590466667 L72.2210214,0.598063542 C73.7929042,0.651241667 73.7929042,0.651241667 75.1567667,1.07666667 C76.7154667,1.56286667 76.7154667,1.56286667 77.8594667,2.50666667 C79.0034667,3.45046667 79.0034667,3.45046667 79.6469667,4.83756667 C80.2904667,6.22466667 80.2904667,6.22466667 80.2904667,8.02646667 C80.2904667,9.45646667 80.2904667,9.45646667 79.8900667,10.4574667 C79.4896667,11.4584667 79.4896667,11.4584667 79.0034667,12.1162667 C78.4314667,12.8598667 78.4314667,12.8598667 77.7164667,13.3746667 L77.7164667,13.3746667 L81.2914667,19.6666667 L77.4556667,19.6658667 L73.3333333,28.6 L102.666667,28.6 L58.6666667,44 L14.6666667,28.6 L44,28.6 L39.9370521,19.7999151 C39.1404204,19.6598865 39.1404204,19.6598865 38.4772667,19.4664667 L38.4772667,19.4664667 L38.4772667,13.7464667 L38.7954417,13.8412042 C39.2780667,13.9752667 39.2780667,13.9752667 39.7928667,14.0610667 C40.3648667,14.2040667 40.3648667,14.2040667 41.0941667,14.2898667 C41.8234667,14.3756667 41.8234667,14.3756667 42.5670667,14.3756667 C43.8826667,14.3756667 43.8826667,14.3756667 43.8826667,13.4032667 C43.8826667,13.0314667 43.8826667,13.0314667 43.4822667,12.6453667 C43.0818667,12.2592667 43.0818667,12.2592667 42.4669667,11.7873667 C41.8520667,11.3154667 41.8520667,11.3154667 41.1513667,10.7434667 C40.4506667,10.1714667 40.4506667,10.1714667 39.8357667,9.42786667 C39.2208667,8.68426667 39.2208667,8.68426667 38.8204667,7.75476667 C38.4200667,6.82526667 38.4200667,6.82526667 38.4200667,5.62406667 C38.4200667,4.27986667 38.4200667,4.27986667 38.9062667,3.25026667 C39.3924667,2.22066667 39.3924667,2.22066667 40.2504667,1.53426667 C41.1084667,0.847866667 41.1084667,0.847866667 42.2667667,0.490366667 C43.4250667,0.132866667 43.4250667,0.132866667 44.7406667,0.132866667 Z M44,20.5333333 L49.1333333,31.5323333 L29.3333333,31.5333333 L58.6666667,40.3333333 L88,31.5333333 L68.1993333,31.5323333 L72.8452001,22 L44,20.5333333 Z M9.90586667,0.132866667 C11.5360667,0.132866667 11.5360667,0.132866667 12.8087667,0.447466667 C14.0814667,0.762066667 14.0814667,0.762066667 14.9966667,1.16246667 C16.0548667,1.62006667 16.0548667,1.62006667 16.8270667,2.16346667 L16.8270667,2.16346667 L13.8240667,7.45446667 L13.5094667,7.22884444 C13.1853333,7.0064 13.1853333,7.0064 12.8230667,6.79666667 C12.3368667,6.56786667 12.3368667,6.56786667 11.6647667,6.35336667 C10.9926667,6.13886667 10.9926667,6.13886667 10.1346667,6.13886667 C9.24806667,6.13886667 9.24806667,6.13886667 8.50446667,6.45346667 C7.76086667,6.76806667 7.76086667,6.76806667 7.20316667,7.31146667 C6.64546667,7.85486667 6.64546667,7.85486667 6.33086667,8.58416667 C6.01626667,9.31346667 6.01626667,9.31346667 6.01626667,10.1428667 C6.01626667,10.9722667 6.01626667,10.9722667 6.34516667,11.7015667 C6.67406667,12.4308667 6.67406667,12.4308667 7.24606667,12.9742667 C7.81806667,13.5176667 7.81806667,13.5176667 8.59026667,13.8322667 C9.36246667,14.1468667 9.36246667,14.1468667 10.2776667,14.1468667 C11.1928667,14.1468667 11.1928667,14.1468667 11.9078667,13.9180667 C12.6228667,13.6892667 12.6228667,13.6892667 13.1090667,13.4032667 C13.6810667,13.0886667 13.6810667,13.0886667 14.1100667,12.6596667 L14.1100667,12.6596667 L17.1130667,17.9506667 L16.8477222,18.1564278 C16.1645,18.6609 16.1645,18.6609 15.2826667,19.0660667 C14.3674667,19.4664667 14.3674667,19.4664667 13.0804667,19.8096667 C11.7934667,20.1528667 11.7934667,20.1528667 10.1346667,20.1528667 C7.90386667,20.1528667 7.90386667,20.1528667 6.01626667,19.4235667 C4.12866667,18.6942667 4.12866667,18.6942667 2.75586667,17.3786667 C1.38306667,16.0630667 1.38306667,16.0630667 0.610866667,14.2183667 C-0.161333333,12.3736667 -0.161333333,12.3736667 -0.161333333,10.1428667 C-0.161333333,7.85486667 -0.161333333,7.85486667 0.639466667,6.01016667 C1.44026667,4.16546667 1.44026667,4.16546667 2.81306667,2.84986667 C4.18586667,1.53426667 4.18586667,1.53426667 6.01626667,0.833566667 C7.84666667,0.132866667 7.84666667,0.132866667 9.90586667,0.132866667 Z M27.4090667,0.132866667 C29.4682667,0.132866667 29.4682667,0.132866667 31.2986667,0.919366667 C33.1290667,1.70586667 33.1290667,1.70586667 34.4875667,3.06436667 C35.8460667,4.42286667 35.8460667,4.42286667 36.6325667,6.25326667 C37.4190667,8.08366667 37.4190667,8.08366667 37.4190667,10.1428667 C37.4190667,12.2020667 37.4190667,12.2020667 36.6325667,14.0324667 C35.8460667,15.8628667 35.8460667,15.8628667 34.4875667,17.2213667 C33.1290667,18.5798667 33.1290667,18.5798667 31.2986667,19.3663667 C29.4682667,20.1528667 29.4682667,20.1528667 27.4090667,20.1528667 C25.3498667,20.1528667 25.3498667,20.1528667 23.5194667,19.3663667 C21.6890667,18.5798667 21.6890667,18.5798667 20.3305667,17.2213667 C18.9720667,15.8628667 18.9720667,15.8628667 18.1855667,14.0324667 C17.3990667,12.2020667 17.3990667,12.2020667 17.3990667,10.1428667 C17.3990667,8.08366667 17.3990667,8.08366667 18.1855667,6.25326667 C18.9720667,4.42286667 18.9720667,4.42286667 20.3305667,3.06436667 C21.6890667,1.70586667 21.6890667,1.70586667 23.5194667,0.919366667 C25.3498667,0.132866667 25.3498667,0.132866667 27.4090667,0.132866667 Z M91.4444667,0.132866667 C93.5036667,0.132866667 93.5036667,0.132866667 95.3340667,0.919366667 C97.1644667,1.70586667 97.1644667,1.70586667 98.5229667,3.06436667 C99.8814667,4.42286667 99.8814667,4.42286667 100.667967,6.25326667 C101.454467,8.08366667 101.454467,8.08366667 101.454467,10.1428667 C101.454467,12.2020667 101.454467,12.2020667 100.667967,14.0324667 C99.8814667,15.8628667 99.8814667,15.8628667 98.5229667,17.2213667 C97.1644667,18.5798667 97.1644667,18.5798667 95.3340667,19.3663667 C93.5036667,20.1528667 93.5036667,20.1528667 91.4444667,20.1528667 C89.3852667,20.1528667 89.3852667,20.1528667 87.5548667,19.3663667 C85.7244667,18.5798667 85.7244667,18.5798667 84.3659667,17.2213667 C83.0074667,15.8628667 83.0074667,15.8628667 82.2209667,14.0324667 C81.4344667,12.2020667 81.4344667,12.2020667 81.4344667,10.1428667 C81.4344667,8.08366667 81.4344667,8.08366667 82.2209667,6.25326667 C83.0074667,4.42286667 83.0074667,4.42286667 84.3659667,3.06436667 C85.7244667,1.70586667 85.7244667,1.70586667 87.5548667,0.919366667 C89.3852667,0.132866667 89.3852667,0.132866667 91.4444667,0.132866667 Z M109.119267,0.590466667 L109.573068,0.596722917 C111.148079,0.640516667 111.148079,0.640516667 112.536967,0.990866667 C114.124267,1.39126667 114.124267,1.39126667 115.311167,2.24926667 C116.498067,3.10726667 116.498067,3.10726667 117.184467,4.49436667 C117.870867,5.88146667 117.870867,5.88146667 117.870867,7.85486667 C117.870867,9.82826667 117.870867,9.82826667 117.184467,11.2153667 C116.498067,12.6024667 116.498067,12.6024667 115.311167,13.4604667 C114.124267,14.3184667 114.124267,14.3184667 112.536967,14.7188667 C110.949667,15.1192667 110.949667,15.1192667 109.119267,15.1192667 L109.119267,15.1192667 L109.119267,19.6666667 L103.027467,19.6666667 L103.027467,0.590466667 L109.119267,0.590466667 Z M71.2814667,14.8332667 L71.2806667,19.0658667 L73.7856667,19.0658667 L71.2814667,14.8332667 Z M27.4090667,2.82126667 C25.8932667,2.82126667 25.8932667,2.82126667 24.5633667,3.39326667 C23.2334667,3.96526667 23.2334667,3.96526667 22.2324667,4.96626667 C21.2314667,5.96726667 21.2314667,5.96726667 20.6594667,7.29716667 C20.0874667,8.62706667 20.0874667,8.62706667 20.0874667,10.1428667 C20.0874667,11.6586667 20.0874667,11.6586667 20.6594667,12.9885667 C21.2314667,14.3184667 21.2314667,14.3184667 22.2324667,15.3194667 C23.2334667,16.3204667 23.2334667,16.3204667 24.5633667,16.8924667 C25.8932667,17.4644667 25.8932667,17.4644667 27.4090667,17.4644667 C28.9248667,17.4644667 28.9248667,17.4644667 30.2547667,16.8924667 C31.5846667,16.3204667 31.5846667,16.3204667 32.5856667,15.3194667 C33.5866667,14.3184667 33.5866667,14.3184667 34.1586667,12.9885667 C34.7306667,11.6586667 34.7306667,11.6586667 34.7306667,10.1428667 C34.7306667,8.62706667 34.7306667,8.62706667 34.1586667,7.29716667 C33.5866667,5.96726667 33.5866667,5.96726667 32.5856667,4.96626667 C31.5846667,3.96526667 31.5846667,3.96526667 30.2547667,3.39326667 C28.9248667,2.82126667 28.9248667,2.82126667 27.4090667,2.82126667 Z M10.0774667,2.82126667 C8.61886667,2.82126667 8.61886667,2.82126667 7.28896667,3.33606667 C5.95906667,3.85086667 5.95906667,3.85086667 4.94376667,4.80896667 C3.92846667,5.76706667 3.92846667,5.76706667 3.31356667,7.12556667 C2.69866667,8.48406667 2.69866667,8.48406667 2.69866667,10.1428667 C2.69866667,11.8302667 2.69866667,11.8302667 3.28496667,13.1744667 C3.87126667,14.5186667 3.87126667,14.5186667 4.90086667,15.4767667 C5.93046667,16.4348667 5.93046667,16.4348667 7.30326667,16.9496667 C8.67606667,17.4644667 8.67606667,17.4644667 10.2204667,17.4644667 C11.0784667,17.4644667 11.0784667,17.4644667 11.7648667,17.3214667 C12.4512667,17.1784667 12.4512667,17.1784667 12.9374667,17.0068667 C13.4808667,16.8066667 13.4808667,16.8066667 13.9098667,16.5492667 L13.9098667,16.5492667 L13.5094667,15.8628667 L13.3164167,15.9862042 C13.0161167,16.1631667 13.0161167,16.1631667 12.6514667,16.2918667 C12.2224667,16.4634667 12.2224667,16.4634667 11.6218667,16.5921667 C11.0212667,16.7208667 11.0212667,16.7208667 10.2204667,16.7208667 C8.64746667,16.7208667 8.64746667,16.7208667 7.38906667,16.2060667 C6.13066667,15.6912667 6.13066667,15.6912667 5.25836667,14.8046667 C4.38606667,13.9180667 4.38606667,13.9180667 3.91416667,12.7168667 C3.44226667,11.5156667 3.44226667,11.5156667 3.44226667,10.1428667 C3.44226667,8.77006667 3.44226667,8.77006667 3.91416667,7.56886667 C4.38606667,6.36766667 4.38606667,6.36766667 5.24406667,5.48106667 C6.10206667,4.59446667 6.10206667,4.59446667 7.33186667,4.07966667 C8.56166667,3.56486667 8.56166667,3.56486667 10.0774667,3.56486667 C10.8210667,3.56486667 10.8210667,3.56486667 11.4073667,3.66496667 C11.9936667,3.76506667 11.9936667,3.76506667 12.3940667,3.90806667 C12.8802667,4.05106667 12.8802667,4.05106667 13.2234667,4.25126667 L13.2234667,4.25126667 L13.6238667,3.56486667 L13.3124444,3.43457778 C12.9946667,3.30746667 12.9946667,3.30746667 12.6514667,3.19306667 C12.1652667,3.05006667 12.1652667,3.05006667 11.5360667,2.93566667 C10.9068667,2.82126667 10.9068667,2.82126667 10.0774667,2.82126667 Z M91.4444667,2.82126667 C89.9286667,2.82126667 89.9286667,2.82126667 88.5987667,3.39326667 C87.2688667,3.96526667 87.2688667,3.96526667 86.2678667,4.96626667 C85.2668667,5.96726667 85.2668667,5.96726667 84.6948667,7.29716667 C84.1228667,8.62706667 84.1228667,8.62706667 84.1228667,10.1428667 C84.1228667,11.6586667 84.1228667,11.6586667 84.6948667,12.9885667 C85.2668667,14.3184667 85.2668667,14.3184667 86.2678667,15.3194667 C87.2688667,16.3204667 87.2688667,16.3204667 88.5987667,16.8924667 C89.9286667,17.4644667 89.9286667,17.4644667 91.4444667,17.4644667 C92.9602667,17.4644667 92.9602667,17.4644667 94.2901667,16.8924667 C95.6200667,16.3204667 95.6200667,16.3204667 96.6210667,15.3194667 C97.6220667,14.3184667 97.6220667,14.3184667 98.1940667,12.9885667 C98.7660667,11.6586667 98.7660667,11.6586667 98.7660667,10.1428667 C98.7660667,8.62706667 98.7660667,8.62706667 98.1940667,7.29716667 C97.6220667,5.96726667 97.6220667,5.96726667 96.6210667,4.96626667 C95.6200667,3.96526667 95.6200667,3.96526667 94.2901667,3.39326667 C92.9602667,2.82126667 92.9602667,2.82126667 91.4444667,2.82126667 Z M44.8264667,2.82126667 C43.2820667,2.82126667 43.2820667,2.82126667 42.2810667,3.52196667 C41.2800667,4.22266667 41.2800667,4.22266667 41.2800667,5.70986667 C41.2800667,6.51066667 41.2800667,6.51066667 41.6947667,7.21136667 C42.1094667,7.91206667 42.1094667,7.91206667 42.7529667,8.58416667 C43.3964667,9.25626667 43.3964667,9.25626667 44.1257667,9.88546667 C44.8550667,10.5146667 44.8550667,10.5146667 45.4985667,11.1581667 C46.1420667,11.8016667 46.1420667,11.8016667 46.5567667,12.4880667 C46.9714667,13.1744667 46.9714667,13.1744667 46.9714667,13.9180667 C46.9714667,15.2908667 46.9714667,15.2908667 46.0419667,16.0058667 C45.1124667,16.7208667 45.1124667,16.7208667 43.4822667,16.7208667 C42.5098667,16.7208667 42.5098667,16.7208667 41.7090667,16.5778667 C41.2800667,16.5206667 41.2800667,16.5206667 40.8796667,16.4348667 L40.8796667,16.4348667 L40.8796667,17.1784667 L41.1529556,17.2324889 C41.4326,17.2833333 41.4326,17.2833333 41.7376667,17.3214667 C42.1380667,17.3786667 42.1380667,17.3786667 42.5813667,17.4215667 C43.0246667,17.4644667 43.0246667,17.4644667 43.4822667,17.4644667 C44.2830667,17.4644667 44.2830667,17.4644667 45.0409667,17.2785667 C45.7988667,17.0926667 45.7988667,17.0926667 46.3994667,16.6636667 C47.0000667,16.2346667 47.0000667,16.2346667 47.3575667,15.5625667 C47.7150667,14.8904667 47.7150667,14.8904667 47.7150667,13.9180667 C47.7150667,13.0886667 47.7150667,13.0886667 47.3003667,12.3450667 C46.8856667,11.6014667 46.8856667,11.6014667 46.2421667,10.9150667 C45.5986667,10.2286667 45.5986667,10.2286667 44.8693667,9.59946667 C44.1400667,8.97026667 44.1400667,8.97026667 43.4965667,8.32676667 C42.8530667,7.68326667 42.8530667,7.68326667 42.4383667,7.03976667 C42.0236667,6.39626667 42.0236667,6.39626667 42.0236667,5.70986667 C42.0236667,4.68026667 42.0236667,4.68026667 42.6814667,4.12256667 C43.3392667,3.56486667 43.3392667,3.56486667 44.7978667,3.56486667 C45.0266667,3.56486667 45.0266667,3.56486667 45.2697667,3.57916667 C45.5128667,3.59346667 45.5128667,3.59346667 45.7416667,3.62206667 C45.9704667,3.65066667 45.9704667,3.65066667 46.1992667,3.65066667 L46.1992667,3.65066667 L46.1992667,2.90706667 L46.0626222,2.90388889 C45.9228,2.89753333 45.9228,2.89753333 45.7702667,2.87846667 C45.5700667,2.84986667 45.5700667,2.84986667 45.3269667,2.83556667 C45.0838667,2.82126667 45.0838667,2.82126667 44.8264667,2.82126667 Z M109.119267,2.87846667 L105.887467,2.87846667 L105.887467,17.3786667 L106.631067,17.3786667 L106.631067,12.8312667 L109.119267,12.8312667 L109.483187,12.8251381 C110.563567,12.7883667 110.563567,12.7883667 111.507367,12.5309667 C112.608467,12.2306667 112.608467,12.2306667 113.409267,11.6300667 C114.210067,11.0294667 114.210067,11.0294667 114.653367,10.0856667 C115.096667,9.14186667 115.096667,9.14186667 115.096667,7.85486667 C115.096667,6.56786667 115.096667,6.56786667 114.653367,5.62406667 C114.210067,4.68026667 114.210067,4.68026667 113.409267,4.07966667 C112.608467,3.47906667 112.608467,3.47906667 111.507367,3.17876667 C110.406267,2.87846667 110.406267,2.87846667 109.119267,2.87846667 L109.119267,2.87846667 Z M71.1384667,2.87846667 L68.0496667,2.87846667 L68.0496667,17.3786667 L68.7932667,17.3786667 L68.7932667,13.0314667 L71.1384667,13.0314667 L71.5823387,13.0223147 C72.4655067,12.9857067 72.4655067,12.9857067 73.3120667,12.8026667 L73.3120667,12.8026667 L76.0290667,17.3786667 L76.9156667,17.3786667 L74.0556667,12.5738667 L74.3582547,12.4593237 C75.6915867,11.9174967 75.6915867,11.9174967 76.5152667,10.9007667 C77.4304667,9.77106667 77.4304667,9.77106667 77.4304667,7.96926667 C77.4304667,6.71086667 77.4304667,6.71086667 76.9442667,5.76706667 C76.4580667,4.82326667 76.4580667,4.82326667 75.6143667,4.17976667 C74.7706667,3.53626667 74.7706667,3.53626667 73.6266667,3.20736667 C72.4826667,2.87846667 72.4826667,2.87846667 71.1384667,2.87846667 L71.1384667,2.87846667 Z M61.9864667,2.87846667 L53.0632667,2.87846667 L53.0632667,3.56486667 L57.1530667,3.56486667 L57.1530667,17.3786667 L57.8966667,17.3786667 L57.8966667,3.56486667 L61.9864667,3.56486667 L61.9864667,2.87846667 Z M27.4090667,3.56486667 C28.7818667,3.56486667 28.7818667,3.56486667 29.9687667,4.07966667 C31.1556667,4.59446667 31.1556667,4.59446667 32.0565667,5.49536667 C32.9574667,6.39626667 32.9574667,6.39626667 33.4722667,7.58316667 C33.9870667,8.77006667 33.9870667,8.77006667 33.9870667,10.1428667 C33.9870667,11.5156667 33.9870667,11.5156667 33.4722667,12.7025667 C32.9574667,13.8894667 32.9574667,13.8894667 32.0565667,14.7903667 C31.1556667,15.6912667 31.1556667,15.6912667 29.9687667,16.2060667 C28.7818667,16.7208667 28.7818667,16.7208667 27.4090667,16.7208667 C26.0362667,16.7208667 26.0362667,16.7208667 24.8493667,16.2060667 C23.6624667,15.6912667 23.6624667,15.6912667 22.7615667,14.7903667 C21.8606667,13.8894667 21.8606667,13.8894667 21.3458667,12.7025667 C20.8310667,11.5156667 20.8310667,11.5156667 20.8310667,10.1428667 C20.8310667,8.77006667 20.8310667,8.77006667 21.3458667,7.58316667 C21.8606667,6.39626667 21.8606667,6.39626667 22.7615667,5.49536667 C23.6624667,4.59446667 23.6624667,4.59446667 24.8493667,4.07966667 C26.0362667,3.56486667 26.0362667,3.56486667 27.4090667,3.56486667 Z M91.4444667,3.56486667 C92.8172667,3.56486667 92.8172667,3.56486667 94.0041667,4.07966667 C95.1910667,4.59446667 95.1910667,4.59446667 96.0919667,5.49536667 C96.9928667,6.39626667 96.9928667,6.39626667 97.5076667,7.58316667 C98.0224667,8.77006667 98.0224667,8.77006667 98.0224667,10.1428667 C98.0224667,11.5156667 98.0224667,11.5156667 97.5076667,12.7025667 C96.9928667,13.8894667 96.9928667,13.8894667 96.0919667,14.7903667 C95.1910667,15.6912667 95.1910667,15.6912667 94.0041667,16.2060667 C92.8172667,16.7208667 92.8172667,16.7208667 91.4444667,16.7208667 C90.0716667,16.7208667 90.0716667,16.7208667 88.8847667,16.2060667 C87.6978667,15.6912667 87.6978667,15.6912667 86.7969667,14.7903667 C85.8960667,13.8894667 85.8960667,13.8894667 85.3812667,12.7025667 C84.8664667,11.5156667 84.8664667,11.5156667 84.8664667,10.1428667 C84.8664667,8.77006667 84.8664667,8.77006667 85.3812667,7.58316667 C85.8960667,6.39626667 85.8960667,6.39626667 86.7969667,5.49536667 C87.6978667,4.59446667 87.6978667,4.59446667 88.8847667,4.07966667 C90.0716667,3.56486667 90.0716667,3.56486667 91.4444667,3.56486667 Z M27.4090667,6.13886667 C26.5796667,6.13886667 26.5796667,6.13886667 25.8503667,6.45346667 C25.1210667,6.76806667 25.1210667,6.76806667 24.5776667,7.31146667 C24.0342667,7.85486667 24.0342667,7.85486667 23.7196667,8.58416667 C23.4050667,9.31346667 23.4050667,9.31346667 23.4050667,10.1428667 C23.4050667,10.9722667 23.4050667,10.9722667 23.7196667,11.7015667 C24.0342667,12.4308667 24.0342667,12.4308667 24.5776667,12.9742667 C25.1210667,13.5176667 25.1210667,13.5176667 25.8503667,13.8322667 C26.5796667,14.1468667 26.5796667,14.1468667 27.4090667,14.1468667 C28.2384667,14.1468667 28.2384667,14.1468667 28.9677667,13.8322667 C29.6970667,13.5176667 29.6970667,13.5176667 30.2404667,12.9742667 C30.7838667,12.4308667 30.7838667,12.4308667 31.0984667,11.7015667 C31.4130667,10.9722667 31.4130667,10.9722667 31.4130667,10.1428667 C31.4130667,9.31346667 31.4130667,9.31346667 31.0984667,8.58416667 C30.7838667,7.85486667 30.7838667,7.85486667 30.2404667,7.31146667 C29.6970667,6.76806667 29.6970667,6.76806667 28.9677667,6.45346667 C28.2384667,6.13886667 28.2384667,6.13886667 27.4090667,6.13886667 Z M91.4444667,6.13886667 C90.6150667,6.13886667 90.6150667,6.13886667 89.8857667,6.45346667 C89.1564667,6.76806667 89.1564667,6.76806667 88.6130667,7.31146667 C88.0696667,7.85486667 88.0696667,7.85486667 87.7550667,8.58416667 C87.4404667,9.31346667 87.4404667,9.31346667 87.4404667,10.1428667 C87.4404667,10.9722667 87.4404667,10.9722667 87.7550667,11.7015667 C88.0696667,12.4308667 88.0696667,12.4308667 88.6130667,12.9742667 C89.1564667,13.5176667 89.1564667,13.5176667 89.8857667,13.8322667 C90.6150667,14.1468667 90.6150667,14.1468667 91.4444667,14.1468667 C92.2738667,14.1468667 92.2738667,14.1468667 93.0031667,13.8322667 C93.7324667,13.5176667 93.7324667,13.5176667 94.2758667,12.9742667 C94.8192667,12.4308667 94.8192667,12.4308667 95.1338667,11.7015667 C95.4484667,10.9722667 95.4484667,10.9722667 95.4484667,10.1428667 C95.4484667,9.31346667 95.4484667,9.31346667 95.1338667,8.58416667 C94.8192667,7.85486667 94.8192667,7.85486667 94.2758667,7.31146667 C93.7324667,6.76806667 93.7324667,6.76806667 93.0031667,6.45346667 C92.2738667,6.13886667 92.2738667,6.13886667 91.4444667,6.13886667 Z M71.1384667,3.56486667 L71.4804591,3.56995111 C73.83926,3.64113333 73.83926,3.64113333 75.2139667,4.70886667 C76.6868667,5.85286667 76.6868667,5.85286667 76.6868667,7.96926667 C76.6868667,10.0856667 76.6868667,10.0856667 75.2139667,11.2153667 C73.7410667,12.3450667 73.7410667,12.3450667 71.1384667,12.3450667 L71.1384667,12.3450667 L68.7932667,12.3450667 L68.7932667,3.56486667 L71.1384667,3.56486667 Z M109.119267,3.56486667 L109.527103,3.57344667 C110.334767,3.60776667 110.334767,3.60776667 111.078367,3.77936667 C112.007867,3.99386667 112.007867,3.99386667 112.722867,4.48006667 C113.437867,4.96626667 113.437867,4.96626667 113.866867,5.79566667 C114.295867,6.62506667 114.295867,6.62506667 114.295867,7.85486667 C114.295867,9.08466667 114.295867,9.08466667 113.866867,9.91406667 C113.437867,10.7434667 113.437867,10.7434667 112.722867,11.2296667 C112.007867,11.7158667 112.007867,11.7158667 111.078367,11.9303667 C110.148867,12.1448667 110.148867,12.1448667 109.119267,12.1448667 L109.119267,12.1448667 L106.631067,12.1448667 L106.631067,3.56486667 L109.119267,3.56486667 Z M71.5960667,5.73846667 L71.2814667,5.73846667 L71.2814667,9.97126667 L71.5960667,9.97126667 C72.6828667,9.97126667 72.6828667,9.97126667 73.4407667,9.48506667 C74.1986667,8.99886667 74.1986667,8.99886667 74.1986667,7.85486667 C74.1986667,6.71086667 74.1986667,6.71086667 73.4407667,6.22466667 C72.6828667,5.73846667 72.6828667,5.73846667 71.5960667,5.73846667 L71.5960667,5.73846667 Z M109.376667,5.73846667 L109.119267,5.73846667 L109.119267,9.97126667 L109.376667,9.97126667 C110.577867,9.97126667 110.577867,9.97126667 111.106967,9.41356667 C111.636067,8.85586667 111.636067,8.85586667 111.636067,7.85486667 C111.636067,6.85386667 111.636067,6.85386667 111.106967,6.29616667 C110.577867,5.73846667 110.577867,5.73846667 109.376667,5.73846667 L109.376667,5.73846667 Z" id="green"></path>
        </g>
    </g>
</svg>