<?xml version="1.0" encoding="UTF-8"?>
<svg width="1024px" height="1024px" viewBox="0 0 1024 1024" version="1.1" xmlns="http://www.w3.org/2000/svg" xmlns:xlink="http://www.w3.org/1999/xlink">
    <title>jiunstudio</title>
    <g id="jiunstudio" stroke="none" stroke-width="1" fill="none" fill-rule="evenodd">
        <rect fill="#232F3E" x="0" y="0" width="1024" height="1024"></rect>
        <g id="Group" transform="translate(68.000000, 68.000000)">
            <g id="Group-2" transform="translate(444.000000, 441.000000) rotate(-315.000000) translate(-444.000000, -441.000000) ">
                <g id="Group-3" transform="translate(290.000000, 753.275676)">
                    <path d="M155,0 C155,13.8632723 155,24.3677932 155,31.5135627 C155,43.2091327 155,51.3739568 155,56.0080349 C155,61.7853348 155,65.2952578 155,66.5378038 C155,89.3186063 141.211426,109.23839 120.644081,120.069794 C110.2038,125.567972 98.0168163,128.724324 85,128.724324 C71.9831837,128.724324 59.7962,125.567972 49.3559186,120.069794 C28.7885738,109.23839 15,89.3186063 15,66.5378038" id="Path" stroke="#FFFFFF" stroke-width="30"></path>
                    <path d="M15,35.7243243 C23.2842712,35.7243243 30,42.4400531 30,50.7243243 L30,66.7243243 L0,66.7243243 L0,50.7243243 C-1.01453063e-15,42.4400531 6.71572875,35.7243243 15,35.7243243 Z" id="Combined-Shape" fill="#FFFFFF"></path>
                </g>
                <line x1="444.5" y1="0.476154791" x2="444.5" y2="753.753034" id="Line" stroke="#FFFFFF" stroke-width="20" stroke-linecap="square"></line>
                <path d="M443.980677,42.4545946 C558.003694,42.4545946 662.044996,77.8814709 740.951892,136.185736 C820.495732,194.960639 874.497741,276.985361 887.40259,369.39372 C873.665367,366.324716 858.414116,363.744997 842.001717,361.751604 L842.001717,361.751604 L839.130155,361.410211 C829.996754,360.347666 820.516054,359.465545 810.746505,358.780093 L810.746505,358.780093 L807.652432,358.570236 L804.540825,358.373642 C796.736112,357.89857 788.75993,357.548242 780.640487,357.330655 L780.640487,357.330655 L777.386841,357.250762 C771.949889,357.129425 766.451503,357.067568 760.900373,357.067568 C696.270124,357.067568 638.788285,365.455314 602.158294,378.466896 C565.518758,365.455479 508.03641,357.067568 443.405505,357.067568 C378.775255,357.067568 321.293416,365.455314 284.663426,378.466896 C248.02389,365.455479 190.541541,357.067568 125.910637,357.067568 C110.921721,357.067568 96.3173454,357.518559 82.2673373,358.373752 L82.2673373,358.373752 L79.1544413,358.570426 L76.0613866,358.780211 C66.29258,359.465579 56.8114402,360.347675 47.6763034,361.4103 L47.6763034,361.4103 L44.8033171,361.751829 L41.9550642,362.10508 C27.0952948,363.986666 13.2193859,366.352265 0.596944966,369.110943 C13.581691,276.769806 67.6027015,194.816436 147.131673,136.095513 C226.023578,77.8449727 330.016411,42.4545946 443.980677,42.4545946 Z" id="Path" stroke="#979797" fill="#FFE60B"></path>
                <path d="M603,378.544865 C603,192.651192 531.589418,41.9545946 443.5,41.9545946 C355.410582,41.9545946 284,192.651192 284,378.544865" id="Path" stroke="#979797"></path>
            </g>
        </g>
    </g>
</svg>